<!-- source: from https://www.svgrepo.com/svg/344742/egg -->
<svg width="202" height="257" viewBox="0 0 202 257" fill="none" xmlns="http://www.w3.org/2000/svg">
    <path d="M173.238 57.263C152.721 20.337 127.091 0 101.068 0C75.045 0 49.416 20.337 28.898 57.263C11.943 87.781 0.987 125.801 0.987 154.125C0.987 181.462 11.234 207.058 29.842 226.196C48.613 245.504 73.908 256.136 101.069 256.136C128.23 256.136 153.525 245.503 172.296 226.196C190.903 207.057 201.15 181.462 201.15 154.125C201.149 125.801 190.193 87.78 173.238 57.263ZM101.068 244.137C51.676 244.137 12.987 204.599 12.987 154.125C12.987 100.581 54.154 12 101.068 12C147.982 12 189.149 100.581 189.149 154.125C189.149 204.599 150.46 244.137 101.068 244.137Z" fill="#333333"/>
    <path id="eggBody" d="M101.068 244.137C51.676 244.137 12.987 204.599 12.987 154.125C12.987 100.581 54.154 12 101.068 12C147.982 12 189.149 100.581 189.149 154.125C189.149 204.599 150.46 244.137 101.068 244.137Z" fill="#FDECA6"/>
</svg>